<?xml version="1.0" encoding="utf-8"?>
<!-- Generator: Adobe Illustrator 26.2.1, SVG Export Plug-In . SVG Version: 6.00 Build 0)  -->
<svg version="1.1" id="a" xmlns="http://www.w3.org/2000/svg" xmlns:xlink="http://www.w3.org/1999/xlink" x="0px" y="0px"
	 viewBox="0 0 3625.6 805.9" style="enable-background:new 0 0 3625.6 805.9;" xml:space="preserve">
<style type="text/css">
	.st0{fill:#FFFFFF;}
	.st1{fill:#36F097;}
</style>
<path class="st0" d="M335.9,162.2c-38.9,33.3-42.3,68.8-42.3,117.3c0,82.8-19.3,225,139.8,344.3c-91.1-133.1-79.2-261.3-79.4-354.7
	c-0.1-47.4,1.8-87.5,31.5-126.5C367.8,146.5,350.8,151.5,335.9,162.2L335.9,162.2z"/>
<path class="st1" d="M499.1,673.1c-37.7-156.5-33.1-293.9-33.2-399.1c0-51.5-2.1-104.9,13.2-154.7l-52.4,13
	c-25.6,41.7-23.6,92.3-23.5,139.3c0.1,98.1-8.4,230.6,59.1,373.9C474.6,654.7,486.9,664,499.1,673.1z"/>
<path class="st1" d="M520.3,109.1c-11,99.5-5.8,202.2-4.9,302.2c0.8,94.6,4.2,189.3,12.7,283.5c17.1,12.9,19.7,12.9,36.8,0
	c8.6-94.2,11.9-188.9,12.7-283.5c0.9-100,6.1-202.7-4.9-302.2C551.4,103.8,541.7,103.8,520.3,109.1L520.3,109.1z"/>
<path class="st1" d="M593.9,673.1c12.3-9.2,24.5-18.4,36.8-27.6c67.4-143.2,59-275.6,59.1-373.9c0.1-47,2.2-97.6-23.5-139.3
	l-52.4-13c15.3,49.8,13.2,103.2,13.2,154.7C627,379.6,631.6,516.7,593.9,673.1z"/>
<path class="st0" d="M799.4,279.5c0-48.5-3.4-84-42.3-117.3c-14.9-10.6-31.9-15.7-49.6-19.6c29.7,39.1,31.6,79.1,31.5,126.5
	c-0.2,91.1,12.2,220.9-79.4,354.7C815.3,507,799.4,371.3,799.4,279.5L799.4,279.5z"/>
<path class="st0" d="M825.1,305c0,54.7,4,107.9-23.1,178.2c61,30.8,168.9,91.5,186.7,157.3c29-7.8,41.6-42.4,23.9-66.7
	c-28.7-39.2-77.7-77.6-147.8-116.3c13.7-53.5,12.5-92.3,12.5-119.8c71.4-35.2,164.6-86.8,208.7-153.3c16.7-25.2,2.2-59.3-27.5-65.3
	C1042.3,199.1,900.7,269.7,825.1,305L825.1,305z"/>
<path class="st0" d="M267.9,252c0-10-0.9-29.5,8.7-53.8c14.9-38.3,47.5-66.9,87.4-76.8l182.5-45.2L729,121.4
	c56.5,13.9,96.2,64.7,96.1,122.9v7.7c99.4-48.7,209.3-113.3,219.1-205.2c3.4-31.6-28-55.7-57.7-43.6c22,54.3-15.4,94.1-61.1,129.6
	c-17.5,13.5-38.5,27-62.6,40.7c-5.8-13.3-13.1-25.9-21.9-37.4C867.1,117.6,900,89,914,54.3C925.3,26.2,898-2,869.6,8.4
	c12.2,33.3-31.1,71-64.1,92.7c-38-28.3-50-26.5-259-78.6c-205.7,51.3-220,49.5-259,78.6c-33-21.7-76.3-59.3-64.1-92.7
	C195-2,167.7,26.2,179,54.3c14,34.7,46.8,63.3,73.2,81.8c-8.8,11.6-16.1,24.1-21.9,37.4c-20.9-11.9-44.1-26.3-62.9-40.9
	C121.3,98.2,85.2,56.2,106.6,3.2C77-8.9,45.5,15.1,48.8,46.8C59.1,143.2,180.8,209.3,267.9,252z"/>
<path class="st0" d="M215.8,337.8c0,26.7-1.3,65.8,12.4,119.8C158.1,496.4,109.2,534.8,80.5,574c-17.8,24.3-5.1,58.9,23.9,66.7
	c17.8-66.1,125.7-126.3,186.7-157.4c-26.9-69.9-23.1-121.7-23.1-178.2C187.7,267.4,50.6,198.1,34.5,119.2
	c-29.6,6-44.2,40.2-27.5,65.4C51.1,250.9,144.2,302.6,215.8,337.8z"/>
<path class="st0" d="M975.3,709.7C960,627,859.9,567.2,781.6,526.8c-44.6,80.3-88.6,104.1-235.1,214L406.1,635.5
	c-38.8-29.2-71.1-66.2-94.8-108.7c-75.7,39.1-178.2,99.3-193.6,182.9c-5.8,31,24.2,57.1,54.6,46.8c-5.4-15.7-21.8-63.6,73.6-130.3
	c2.2-1.5,17.9-13.2,47.9-30.5c8,10.8,16.6,21.3,25.7,31.2c-27.3,18-66.3,49-81.9,87.7c-11.3,28.1,15.9,56.3,44.4,45.9
	c-13.4-36.7,40.3-78.5,73.6-98.7c13.9,11.9,2,2.5,190.9,144.2C734,665.2,722.9,674.1,737.4,661.7c33.3,20.2,87,62,73.6,98.7
	c28.4,10.4,55.7-17.8,44.4-45.9c-15.6-38.7-54.6-69.7-81.9-87.7c9.1-10,17.7-20.4,25.8-31.2c30,17.3,45.7,29.1,47.9,30.5
	c95.5,66.8,79,114.6,73.6,130.3h0.1C950.8,766.8,981.1,740.9,975.3,709.7L975.3,709.7z"/>
<polygon class="st0" points="1545.9,343.5 1545.9,242.1 1334.4,242.1 1334.4,343.5 1260.6,343.5 1260.6,73.1 1334.4,73.1 
	1334.4,175.3 1545.9,175.3 1545.9,73.1 1619.7,73.1 1619.7,343.5 "/>
<path class="st0" d="M2180.7,343.5c-9.3,0-18.4-1.5-26.9-4.5c-8.5-3-16-7.2-22.3-12.6c-6.3-5.3-11.4-11.8-15.3-19.4
	c-3.7-7.3-5.6-15.8-5.6-25.1V134.6c0-9.4,1.9-17.8,5.6-25.1c3.9-7.5,9-14,15.3-19.4c6.3-5.4,13.9-9.6,22.4-12.6
	c8.6-3,17.6-4.5,26.9-4.5h279.5v66.3h-248.6c-6.5,0-12.5,2-17.8,5.8c-7.7,5.6-9.3,11.8-9.3,15.9v94.3c0,4.2,1.6,10.3,9.3,15.9
	c5.3,3.9,11.3,5.8,17.8,5.8h248.6v66.3L2180.7,343.5L2180.7,343.5z"/>
<polygon class="st0" points="2754.9,343.5 2633.9,241.6 2568,241.6 2568,343.5 2494.7,343.5 2494.7,73.1 2568,73.1 2568,174.9 
	2633.9,174.9 2754.9,73.1 2847.8,73.1 2693.8,208.2 2847.8,343.5 "/>
<polygon class="st0" points="2882.3,343.5 2882.3,73.1 3231.9,73.1 3231.9,139.3 2956.1,139.3 2956.1,175.8 3178.8,175.8 
	3178.8,240.7 2956.1,240.7 2956.1,277.2 3231.9,277.2 3231.9,343.5 "/>
<path class="st0" d="M3527.2,343.5l-94.5-80.7h-92.9v80.7h-73.4V73.1h289c9.3,0,18.3,1.5,26.9,4.5c8.5,3,16,7.2,22.3,12.6
	c6.3,5.3,11.4,11.8,15.3,19.4c3.7,7.3,5.6,15.8,5.6,25.1v66.6c0,9.3-1.9,17.7-5.8,25c-4,7.5-9.4,14-16.1,19.3
	c-6.8,5.4-14.9,9.7-24.1,12.7c-9.2,3-19,4.6-29,4.6h-25l91.6,80.7L3527.2,343.5L3527.2,343.5z M3339.8,196.1h187.4l0.7-0.1
	c5.4-0.8,10.4-3,15-6.5c7.2-5.4,8.7-11.2,8.7-15.2V159l-0.3-1.2c-1.2-4.3-4.1-8.4-8.7-12c-4.3-3.4-9.3-5.5-14.7-6.4l-0.8-0.1h-187.4
	L3339.8,196.1L3339.8,196.1z"/>
<polygon class="st1" points="1260.6,719.5 1260.6,449 1328.2,449 1328.2,652.7 1572.9,652.7 1572.9,719.5 "/>
<path class="st1" d="M2042.7,719.5V449h267.9c8.5,0,16.8,1.5,24.7,4.5c7.8,2.9,14.7,7.1,20.6,12.5c5.8,5.3,10.6,11.8,14.2,19.4
	c3.5,7.4,5.3,15.9,5.3,25.3v36.1c0,1.2-0.2,3.4-1.2,7c-0.9,3.2-2.1,6.3-3.5,9.4c-1.3,2.9-3,5.6-4.9,8.1c-1.7,2.2-3.5,4-5.2,5.1
	l-11.4,7.6l11.2,7.9c2.2,1.6,4.3,3.5,6.2,5.9c1.9,2.4,3.5,4.9,4.6,7.6c1.3,3.1,2.3,6.2,3.1,9.2c0.7,2.8,1,5.1,1,7v36.2
	c0,9.4-1.8,17.9-5.3,25.3c-3.6,7.5-8.3,14-14.2,19.3c-5.9,5.3-12.8,9.5-20.6,12.5c-7.9,3-16.2,4.5-24.7,4.5L2042.7,719.5
	L2042.7,719.5z M2110.3,653.2h181.9l1-0.2c6.6-1.5,9.9-5.1,11.6-8c1.9-3.2,2.8-6.6,2.8-10c0-8.2-4.8-14.5-13-17.3l-1.4-0.5h-182.9
	V653.2L2110.3,653.2z M2110.3,551.3h182.1l1.1-0.3c8.9-2.2,14.2-8.9,14.2-17.9v-0.6l-0.1-0.6c-0.4-3.6-1.3-6.5-2.6-8.9
	c-2.1-3.8-5.9-6.3-11.2-7.5l-1-0.2h-182.4L2110.3,551.3L2110.3,551.3z"/>
<path class="st0" d="M2501.1,633.9v85.5h-86.4v-85.5L2501.1,633.9L2501.1,633.9z"/>
<path class="st0" d="M2540.6,719.5V449h267.9c8.5,0,16.8,1.5,24.7,4.5c7.8,2.9,14.7,7.1,20.6,12.5c5.8,5.3,10.6,11.8,14.2,19.4
	c3.5,7.4,5.3,15.9,5.3,25.3v66.6c0,9.4-1.8,17.9-5.3,25.3c-3.6,7.5-8.3,14-14.2,19.3c-5.9,5.3-12.8,9.5-20.6,12.5
	c-7.9,3-16.2,4.5-24.7,4.5h-200.3v80.7L2540.6,719.5L2540.6,719.5z M2608.2,572.1h174.2l0.8-0.1c5.1-0.8,9.9-3.1,14.3-6.6
	c6.7-5.4,8.1-11.2,8.1-15V535l-0.3-1.1c-1.1-4.3-3.8-8.3-8.1-11.9c-4.1-3.4-8.8-5.6-14-6.5l-0.8-0.1h-174.2L2608.2,572.1
	L2608.2,572.1z"/>
<path class="st0" d="M3154.6,719.5l-87.7-80.7h-87.1v80.7h-67.2V449h267.9c8.5,0,16.8,1.5,24.7,4.5c7.8,2.9,14.7,7.1,20.6,12.5
	c5.8,5.3,10.6,11.8,14.2,19.4c3.5,7.4,5.3,15.9,5.3,25.3v66.6c0,9.4-1.8,17.8-5.4,25.2c-3.7,7.5-8.7,14-14.9,19.3
	c-6.3,5.4-13.8,9.6-22.1,12.6c-8.5,3-17.4,4.5-26.6,4.5h-23.6l85.1,80.7L3154.6,719.5L3154.6,719.5z M2979.8,572.1h174.6l0.8-0.1
	c5.1-0.8,9.9-3.1,14.3-6.6c6.7-5.4,8.1-11.2,8.1-15V535l-0.3-1.1c-1.1-4.3-3.8-8.3-8.1-11.9c-4.1-3.4-8.8-5.6-14-6.5l-0.8-0.1
	h-174.6L2979.8,572.1L2979.8,572.1z"/>
<path class="st0" d="M3349.3,719.5c-8.5,0-16.8-1.5-24.7-4.5c-7.8-2.9-14.7-7.1-20.6-12.5c-5.8-5.3-10.6-11.8-14.2-19.3
	c-3.5-7.3-5.3-15.9-5.3-25.3V510.6c0-9.4,1.8-17.9,5.3-25.3c3.6-7.5,8.3-14,14.2-19.4c5.8-5.3,12.8-9.5,20.6-12.5
	c7.9-3,16.2-4.5,24.7-4.5h211.6c8.5,0,16.8,1.5,24.7,4.5c7.8,2.9,14.7,7.1,20.6,12.5c5.8,5.3,10.6,11.8,14.2,19.4
	c3.5,7.4,5.3,15.9,5.3,25.3v147.2c0,9.4-1.8,17.9-5.3,25.3c-3.6,7.5-8.3,14-14.2,19.3c-5.9,5.3-12.8,9.5-20.6,12.5
	c-7.9,3-16.2,4.5-24.7,4.5L3349.3,719.5L3349.3,719.5z M3374.6,515.5c-5.2,0.9-9.9,3.1-14,6.5c-4.3,3.7-7.1,7.7-8.1,12l-0.3,1.1
	v96.4c0,3.9,1.4,9.6,8.1,15c4.3,3.5,9.1,5.7,14.3,6.6l0.8,0.1h159.4l0.8-0.1c5.1-0.8,9.9-3.1,14.3-6.6c6.7-5.4,8.1-11.2,8.1-15V535
	l-0.3-1.1c-1.1-4.3-3.8-8.3-8.1-11.9c-4.1-3.5-8.8-5.6-14-6.5l-0.8-0.1h-159.4L3374.6,515.5L3374.6,515.5z"/>
<path class="st0" d="M1911.3,87.8c-7-6.2-14.4-10.2-22.1-11.8c-9.1-1.9-17.2-2.9-24.1-2.9s-15,1-24.1,2.9
	c-7.7,1.6-15.1,5.6-22.1,11.8l-164.7,255.7h87.2l88.7-137.2l35-54.5l57.6,90.6h-77.8l-41.4,64.1h159.9l24.2,37h88.4
	C2076,343.4,1911.3,87.8,1911.3,87.8z"/>
<path class="st1" d="M1854,463.8c-7-6.2-14.4-10.2-22.1-11.8c-9.1-1.9-17.2-2.9-24.1-2.9s-15,1-24.1,2.9
	c-7.7,1.6-15.1,5.6-22.1,11.8l-164.7,255.7h87.2l88.7-137.2l35-54.5l57.6,90.6h-77.8l-41.4,64.1h159.9l24.2,37h88.4L1854,463.8
	L1854,463.8z"/>
</svg>
